<svg width="449" height="220" viewBox="0 0 449 220" fill="none" xmlns="http://www.w3.org/2000/svg">
<path d="M223 120C217.477 120 213 115.523 213 110C213 104.477 208.523 100 203 100H143C127.536 100 115 112.536 115 128C115 130.06 115.222 132.067 115.644 134L115.844 134.958C127.148 183.686 170.833 220 223 220C256.457 220 286.433 205.051 306.592 181.504C307.747 180.154 337.05 141.743 338.5 140C357.602 117.044 374.444 100 448.5 100L404 100C366.19 100 333.825 111.658 320.5 128.177L291.123 168.818C274.605 187.931 250.217 200 223 200C180.525 200 144.921 170.576 135.463 130.998C134.078 125.203 138.758 120 144.716 120H187.635C191.873 120 195.519 122.775 197.828 126.328C203.178 134.558 212.453 140 223 140C228.523 140 233 135.523 233 130C233 124.477 228.523 120 223 120Z" fill="white"/>
<path d="M225.5 100C231.023 100 235.5 104.477 235.5 110C235.5 115.523 239.977 120 245.5 120H305.5C320.964 120 333.5 107.464 333.5 92C333.5 89.9405 333.278 87.9329 332.856 86L332.656 85.0418C321.352 36.3137 277.667 -1.52588e-05 225.5 -1.52588e-05C192.043 -1.52588e-05 162.067 14.9488 141.908 38.4966C140.753 39.8456 111.45 78.2573 110 80C90.8979 102.957 74.0564 120 0 120L44.5 120C82.3102 120 114.675 108.342 128 91.823L157.377 51.182C173.895 32.0692 198.283 20 225.5 20C267.975 20 303.579 49.4246 313.037 89.002C314.422 94.7967 309.742 100 303.784 100H260.865C256.627 100 252.981 97.2256 250.672 93.6721C245.322 85.4425 236.047 80 225.5 80C219.977 80 215.5 84.4772 215.5 90C215.5 95.5229 219.977 100 225.5 100Z" fill="#D22E2E"/>
</svg>
