<svg xmlns="http://www.w3.org/2000/svg" width="220" height="221" viewBox="0 0 220 221" fill="none"><g xmlns="http://www.w3.org/2000/svg" transform="rotate(180 110 110)">
<path d="M111.934 0.0655518V20.2001C116.499 21.1266 119.934 25.1621 119.934 30C119.934 34.8379 116.499 38.8734 111.934 39.7999V59.9344C127.571 58.9053 139.934 45.8966 139.934 30C139.934 14.1034 127.571 1.09473 111.934 0.0655518Z" fill="#BD0000"/>
<path d="M107.934 0.0655518V20.2001C103.37 21.1266 99.9344 25.1621 99.9344 30C99.9344 34.8379 103.37 38.8734 107.934 39.7999V59.9344C92.2983 58.9053 79.9344 45.8966 79.9344 30C79.9344 14.1034 92.2983 1.09473 107.934 0.0655518Z" fill="#BD0000"/>
<path d="M109.934 24C113.248 24 115.934 26.6863 115.934 30C115.934 33.3137 113.248 36 109.934 36C106.621 36 103.934 33.3137 103.934 30C103.934 26.6863 106.621 24 109.934 24Z" fill="#BD0000"/>
<path d="M91.3345 1.57715C39.4733 10.4418 0 55.6111 0 110C0 123.056 2.27449 135.58 6.44883 147.199C14.3324 169.141 42.426 169.315 58.402 152.333C65.0679 145.248 65.2621 134.388 62.3248 125.113C60.8146 120.345 60 115.268 60 110C60 86.7313 75.8945 67.1752 97.4186 61.5963C84.8691 56.5948 76 44.3331 76 30C76 18.1157 82.0974 7.65552 91.3345 1.57715Z" fill="url(#paint0_linear_109_44)"/>
<path d="M108 220.365V200.231C103.436 199.304 100 195.269 100 190.431C100 185.593 103.436 181.557 108 180.631V160.496C92.3639 161.525 80 174.534 80 190.431C80 206.327 92.3639 219.336 108 220.365Z" fill="white"/>
<path d="M112 220.365V200.231C116.564 199.304 120 195.269 120 190.431C120 185.593 116.564 181.557 112 180.631V160.496C127.636 161.525 140 174.534 140 190.431C140 206.327 127.636 219.336 112 220.365Z" fill="white"/>
<path d="M110 196.431C106.686 196.431 104 193.744 104 190.431C104 187.117 106.686 184.431 110 184.431C113.314 184.431 116 187.117 116 190.431C116 193.744 113.314 196.431 110 196.431Z" fill="white"/>
<path d="M128.6 218.854C180.461 209.989 219.934 164.82 219.934 110.431C219.934 97.3749 217.66 84.8505 213.486 73.2319C205.602 51.2894 177.508 51.1155 161.532 68.0975C154.867 75.1832 154.672 86.043 157.61 95.3173C159.12 100.085 159.934 105.163 159.934 110.431C159.934 133.699 144.04 153.255 122.516 158.834C135.065 163.836 143.934 176.098 143.934 190.431C143.934 202.315 137.837 212.775 128.6 218.854Z" fill="url(#paint1_linear_109_44)"/><animateTransform xmlns="http://www.w3.org/2000/svg" attributeName="transform" type="rotate" from="0 110 110" to="360 110 110" dur="3200ms" repeatCount="indefinite"/></g>
<defs>
<linearGradient id="paint0_linear_109_44" x1="14" y1="60" x2="43.5" y2="142.5" gradientUnits="userSpaceOnUse">
<stop stop-color="#BD0000"/>
<stop offset="1" stop-color="#C10000" stop-opacity="0"/>
</linearGradient>
<linearGradient id="paint1_linear_109_44" x1="197" y1="166.5" x2="171" y2="89" gradientUnits="userSpaceOnUse">
<stop stop-color="white"/>
<stop offset="1" stop-color="white" stop-opacity="0"/>
</linearGradient>
</defs>
</svg>