<svg width="512" height="442" viewBox="0 0 512 442" fill="none" xmlns="http://www.w3.org/2000/svg">
<path fill-rule="evenodd" clip-rule="evenodd" d="M366 221C366 281.751 316.751 331 256 331C195.249 331 146 281.751 146 221C146 160.249 195.249 111 256 111C316.751 111 366 160.249 366 221ZM350.668 229C346.605 277.723 305.773 316 256 316C206.227 316 165.395 277.723 161.332 229H221.918C225.537 244.475 239.422 256 256 256C272.578 256 286.463 244.475 290.082 229H350.668ZM350.668 213H290.082C286.463 197.525 272.578 186 256 186C239.422 186 225.537 197.525 221.918 213H161.332C165.395 164.277 206.227 126 256 126C305.773 126 346.605 164.277 350.668 213ZM278 221C278 233.15 268.15 243 256 243C243.85 243 234 233.15 234 221C234 208.85 243.85 199 256 199C268.15 199 278 208.85 278 221Z" fill="white"/>
<path fill-rule="evenodd" clip-rule="evenodd" d="M435.316 1.45462C432.874 -0.26205 429.678 -0.475612 427.029 0.900761C424.379 2.27713 422.717 5.01435 422.717 8V32H256C151.618 32 67 116.618 67 221C67 273.373 88.3021 320.77 122.715 355H89.2834V331C89.2834 328.014 87.6208 325.277 84.9713 323.901C82.3218 322.524 79.1264 322.738 76.6836 324.455L3.40021 375.955C1.26862 377.453 0 379.895 0 382.5C0 385.105 1.26862 387.547 3.40021 389.045L76.6836 440.545C79.1264 442.262 82.3218 442.476 84.9713 441.099C87.6208 439.723 89.2834 436.986 89.2834 434V410H256C360.382 410 445 325.382 445 221C445 168.627 423.698 121.23 389.285 87H422.717V111C422.717 113.986 424.379 116.723 427.029 118.099C429.678 119.476 432.874 119.262 435.316 117.545L508.6 66.0454C510.731 64.5474 512 62.1053 512 59.5C512 56.8947 510.731 54.4526 508.6 52.9546L435.316 1.45462ZM73.2834 363C73.2834 367.418 76.8651 371 81.2834 371H256C338.843 371 406 303.843 406 221C406 162.429 372.43 111.699 323.481 87H365.43C404.232 118.725 429 166.97 429 221C429 316.545 351.545 394 256 394H81.2834C76.8651 394 73.2834 397.582 73.2834 402V418.6L21.9137 382.5L73.2834 346.4V363ZM146.57 355H188.519C139.57 330.301 106 279.571 106 221C106 138.157 173.157 71 256 71H430.717C435.135 71 438.717 74.5817 438.717 79V95.6001L490.086 59.5L438.717 23.3999V40C438.717 44.4183 435.135 48 430.717 48H256C160.455 48 83 125.455 83 221C83 275.03 107.768 323.275 146.57 355ZM390 221C390 295.006 330.006 355 256 355C181.994 355 122 295.006 122 221C122 146.994 181.994 87 256 87C330.006 87 390 146.994 390 221Z" fill="white"/>
</svg>
