<svg width="260" height="260" viewBox="0 0 260 260" fill="none" xmlns="http://www.w3.org/2000/svg">
<path d="M138.074 3.31123C133.597 -1.10374 126.403 -1.10374 121.926 3.31123L50.4258 73.8112C45.9032 78.2705 45.8519 85.5517 50.3112 90.0743C54.7705 94.5968 62.0518 94.6481 66.5742 90.1888L118.5 38.9893V188.5C118.5 194.851 123.649 200 130 200C136.351 200 141.5 194.851 141.5 188.5V38.9893L193.426 90.1888C197.948 94.6481 205.229 94.5968 209.689 90.0743C214.148 85.5517 214.097 78.2705 209.574 73.8112L138.074 3.31123Z" fill="white"/>
<path d="M24.0154 202.5C24.0051 202.832 24 203.165 24 203.5C24 221.173 38.3269 235.5 56 235.5H204C221.673 235.5 236 221.173 236 203.5C236 203.165 235.995 202.832 235.985 202.5H236V153.5C236 146.873 241.373 141.5 248 141.5C254.627 141.5 260 146.873 260 153.5V204.5H259.966C258.912 235.054 233.811 259.5 203 259.5H56V259.491C25.6478 258.969 1.07654 234.723 0.0344238 204.5H0V153.5C0 146.873 5.37256 141.5 12 141.5C18.6274 141.5 24 146.873 24 153.5V202.5H24.0154Z" fill="white"/>
</svg>
